<svg width="70" height="70" viewBox="0 0 70 70" fill="none" xmlns="http://www.w3.org/2000/svg">
<path d="M57.1174 62.3875L16.1035 62.1241C15.7163 62.1214 15.387 62.398 15.3106 62.7773C15.2211 63.2185 15.0828 63.69 14.8839 64.2024C14.7061 64.6607 15.038 65.1572 15.5292 65.1572L55.9505 65.1585C56.9857 65.1585 57.8549 64.3828 57.9734 63.3555C58.0314 62.8419 57.6323 62.3901 57.1174 62.3875Z" fill="#BA96E9"/>
<path d="M41.8502 21.3381V16.6283C41.8502 15.7288 41.1179 14.9978 40.2197 14.9978H17.9657C17.0662 14.9978 16.3352 15.7301 16.3352 16.6283V21.3381C16.3352 22.2376 17.0675 22.9686 17.9657 22.9686H40.2197C41.1193 22.9699 41.8502 22.2376 41.8502 21.3381ZM17.2558 21.3381V16.6283C17.2558 16.2372 17.5746 15.9198 17.9644 15.9198H22.7887C20.7197 16.8009 19.2696 18.8528 19.2696 21.2432C19.2696 21.5488 19.3776 21.8293 19.558 22.0479H17.9644C17.5746 22.0479 17.2558 21.7292 17.2558 21.3381ZM20.53 28.8834H12.9057C12.6515 28.8834 12.4447 29.0901 12.4447 29.3443C12.4447 29.5985 12.6515 29.8053 12.9057 29.8053H20.53C20.7842 29.8053 20.991 29.5985 20.991 29.3443C20.991 29.0901 20.7855 28.8834 20.53 28.8834ZM20.53 35.1709H12.9057C12.6515 35.1709 12.4447 35.3777 12.4447 35.6319C12.4447 35.8861 12.6515 36.0928 12.9057 36.0928H20.53C20.7842 36.0928 20.991 35.8861 20.991 35.6319C20.991 35.3777 20.7855 35.1709 20.53 35.1709ZM20.53 41.4598H12.9057C12.6515 41.4598 12.4447 41.6665 12.4447 41.9207C12.4447 42.1749 12.6515 42.3817 12.9057 42.3817H20.53C20.7842 42.3817 20.991 42.1749 20.991 41.9207C20.991 41.6665 20.7855 41.4598 20.53 41.4598ZM20.53 47.7473H12.9057C12.6515 47.7473 12.4447 47.9541 12.4447 48.2083C12.4447 48.4625 12.6515 48.6692 12.9057 48.6692H20.53C20.7842 48.6692 20.991 48.4625 20.991 48.2083C20.991 47.9541 20.7855 47.7473 20.53 47.7473ZM20.53 54.0362H12.9057C12.6515 54.0362 12.4447 54.2429 12.4447 54.4971C12.4447 54.7513 12.6515 54.9581 12.9057 54.9581H20.53C20.7842 54.9581 20.991 54.7513 20.991 54.4971C20.991 54.2429 20.7855 54.0362 20.53 54.0362ZM38.2205 28.8834H25.8232C25.569 28.8834 25.3622 29.0901 25.3622 29.3443C25.3622 29.5985 25.569 29.8053 25.8232 29.8053H38.2205C38.4746 29.8053 38.6814 29.5985 38.6814 29.3443C38.6814 29.0901 38.4746 28.8834 38.2205 28.8834ZM38.2205 35.1709H25.8232C25.569 35.1709 25.3622 35.3777 25.3622 35.6319C25.3622 35.8861 25.569 36.0928 25.8232 36.0928H38.2205C38.4746 36.0928 38.6814 35.8861 38.6814 35.6319C38.6814 35.3777 38.4746 35.1709 38.2205 35.1709ZM38.2205 41.4598H25.8232C25.569 41.4598 25.3622 41.6665 25.3622 41.9207C25.3622 42.1749 25.569 42.3817 25.8232 42.3817H38.2205C38.4746 42.3817 38.6814 42.1749 38.6814 41.9207C38.6814 41.6665 38.4746 41.4598 38.2205 41.4598ZM45.2798 47.7473H25.8232C25.569 47.7473 25.3622 47.9541 25.3622 48.2083C25.3622 48.4625 25.569 48.6692 25.8232 48.6692H45.2798C45.534 48.6692 45.7407 48.4625 45.7407 48.2083C45.7407 47.9541 45.534 47.7473 45.2798 47.7473ZM45.2798 54.0362H25.8232C25.569 54.0362 25.3622 54.2429 25.3622 54.4971C25.3622 54.7513 25.569 54.9581 25.8232 54.9581H45.2798C45.534 54.9581 45.7407 54.7513 45.7407 54.4971C45.7407 54.2429 45.534 54.0362 45.2798 54.0362ZM52.9489 42.0775C52.6947 42.0775 52.4879 42.2842 52.4879 42.5384V57.6053C52.4879 57.8595 52.6947 58.0663 52.9489 58.0663C53.2031 58.0663 53.4099 57.8595 53.4099 57.6053V42.5384C53.4099 42.2842 53.2031 42.0775 52.9489 42.0775Z" fill="#D7C6F3"/>
<path d="M58.5621 59.9984H13.0967C12.2248 59.9984 11.5162 60.707 11.5162 61.5788V64.3973C11.5162 65.9975 10.1781 67.3541 8.66088 67.3541C7.03039 67.3541 5.70413 66.0278 5.70413 64.3973L5.69623 5.65212C5.69623 5.37949 5.90564 5.27413 5.96885 5.24911C6.03339 5.22408 6.25728 5.1556 6.4443 5.35315L8.93614 7.97538C9.53144 8.60229 10.3348 8.94735 11.1988 8.94735C12.0628 8.94735 12.8662 8.60229 13.4615 7.97538L15.5687 5.75748C15.9876 5.31627 16.5539 5.07262 17.1637 5.07262C17.7735 5.07262 18.3385 5.31627 18.7573 5.75748L20.8646 7.97538C21.4599 8.60097 22.2633 8.94603 23.1272 8.94603C23.9912 8.94603 24.7946 8.60097 25.3899 7.97538L27.4972 5.75748C27.916 5.31627 28.4823 5.07262 29.0908 5.07262C29.6992 5.07262 30.2656 5.31627 30.6844 5.75748L32.7917 7.97538C33.387 8.60097 34.1903 8.94603 35.0543 8.94603C35.9183 8.94603 36.7217 8.60097 37.317 7.97406L39.4243 5.75617C39.8431 5.31496 40.4094 5.07131 41.0179 5.07131C41.6263 5.07131 42.1927 5.31364 42.6115 5.75617L44.7201 7.97538C45.3154 8.60097 46.1188 8.94603 46.9827 8.94603C47.8467 8.94603 48.6501 8.60097 49.2454 7.97538L51.7386 5.35183C51.9269 5.15428 52.1495 5.22277 52.214 5.24779C52.2786 5.27281 52.4866 5.37818 52.4866 5.6508V18.9832C52.4866 19.2374 52.6934 19.4441 52.9476 19.4441C53.2018 19.4441 53.4086 19.2374 53.4086 18.9832V5.6508C53.4086 5.09238 53.074 4.59849 52.5551 4.39171C52.0362 4.18494 51.4541 4.31269 51.0695 4.71702L48.5764 7.34056C48.1575 7.78177 47.5912 8.02542 46.9827 8.02542C46.3743 8.02542 45.8079 7.78309 45.3891 7.34056L43.2819 5.12135C42.6866 4.49576 41.8832 4.1507 41.0192 4.1507C40.1552 4.1507 39.3518 4.49576 38.7565 5.12135L36.6493 7.33925C36.2304 7.78045 35.6641 8.02411 35.0543 8.02411C34.4459 8.02411 33.8795 7.78045 33.4607 7.33925L31.3534 5.12135C30.7581 4.49576 29.9548 4.1507 29.0908 4.1507C28.2268 4.1507 27.4234 4.49576 26.8281 5.12135L24.7208 7.33925C24.302 7.78045 23.7357 8.02411 23.1272 8.02411C22.5188 8.02411 21.9524 7.78045 21.5336 7.33925L19.4264 5.12135C18.831 4.49576 18.0277 4.1507 17.1637 4.1507C16.2997 4.1507 15.4963 4.49576 14.901 5.12135L12.7937 7.33925C12.3749 7.78045 11.8086 8.02411 11.2001 8.02411C10.5917 8.02411 10.0253 7.78045 9.6052 7.33925L7.11336 4.71834C6.92709 4.52112 6.68572 4.38461 6.42072 4.32658C6.15572 4.26855 5.87939 4.29171 5.62774 4.39303C5.37537 4.49273 5.15892 4.66622 5.00667 4.89084C4.85442 5.11546 4.77344 5.38077 4.7743 5.65212L4.78352 64.3973C4.78352 66.5362 6.52333 68.276 8.6622 68.276H56.1717C58.362 68.276 60.1439 66.494 60.1439 64.3038V61.5788C60.1426 60.707 59.434 59.9984 58.5621 59.9984ZM59.2207 64.3025C59.2207 65.9843 57.8523 67.3527 56.1704 67.3527H11.0157C11.8863 66.6205 12.4381 65.5247 12.4381 64.3117V61.5788C12.4381 61.2153 12.7332 60.9203 13.0967 60.9203H58.5621C58.9256 60.9203 59.2207 61.2153 59.2207 61.5788V64.3025Z" fill="#D7C6F3"/>
<path d="M56.0491 32.3893C55.6856 32.3893 55.3431 32.5316 55.0863 32.7884C54.8295 33.0452 54.6873 33.3876 54.6873 33.7511C54.6873 34.1146 54.8295 34.4571 55.0863 34.7139C55.3431 34.9707 55.6856 35.113 56.0491 35.113C56.4126 35.113 56.755 34.9707 57.0118 34.7139C57.5426 34.1831 57.5426 33.3191 57.0118 32.7871C56.8856 32.6604 56.7355 32.5601 56.5703 32.4918C56.405 32.4235 56.2279 32.3887 56.0491 32.3893Z" fill="#F3EFFB"/>
<path d="M52.9488 21.2248C47.7426 21.2248 43.5215 25.4459 43.5215 30.6522C43.5215 35.8584 47.7426 40.0795 52.9488 40.0795C58.1551 40.0795 62.3762 35.8584 62.3762 30.6522C62.3762 25.4459 58.1551 21.2248 52.9488 21.2248ZM47.1578 27.5532C47.1578 26.8341 47.4384 26.1571 47.9467 25.6487C48.4551 25.1403 49.1321 24.8598 49.8512 24.8598C50.5703 24.8598 51.2472 25.1403 51.7556 25.6487C52.8053 26.6984 52.8053 28.4079 51.7556 29.4576C51.2472 29.966 50.5703 30.2465 49.8512 30.2465C49.1321 30.2465 48.4551 29.966 47.9467 29.4576C47.437 28.9479 47.1578 28.2723 47.1578 27.5532ZM49.3626 35.1801C49.2322 35.3105 49.0623 35.3751 48.8924 35.3751C48.7225 35.3751 48.5513 35.3105 48.4222 35.1801C48.2976 35.0551 48.2276 34.8858 48.2276 34.7093C48.2276 34.5328 48.2976 34.3635 48.4222 34.2384L56.5365 26.1242C56.6615 25.9996 56.8308 25.9296 57.0073 25.9296C57.1838 25.9296 57.3531 25.9996 57.4781 26.1242C57.6028 26.2492 57.6727 26.4185 57.6727 26.595C57.6727 26.7715 57.6028 26.9408 57.4781 27.0659L49.3626 35.1801ZM57.9536 35.6556C57.4452 36.164 56.7683 36.4445 56.0492 36.4445C55.33 36.4445 54.6531 36.164 54.1447 35.6556C53.6363 35.1472 53.3558 34.4702 53.3558 33.7511C53.3558 33.032 53.6363 32.3551 54.1447 31.8467C54.6531 31.3383 55.33 31.0578 56.0492 31.0578C56.7683 31.0578 57.4452 31.3383 57.9536 31.8467C59.0033 32.8964 59.0033 34.6046 57.9536 35.6556Z" fill="#F3EFFB"/>
<path d="M50.814 28.5159C51.3447 27.9852 51.3447 27.1212 50.814 26.5891C50.5571 26.3323 50.2147 26.19 49.8512 26.19C49.4877 26.19 49.1453 26.3323 48.8884 26.5891C48.6316 26.8459 48.4894 27.1883 48.4894 27.5519C48.4894 27.9154 48.6316 28.2578 48.8884 28.5146C49.1453 28.7714 49.4877 28.9137 49.8512 28.9137C50.2147 28.915 50.5558 28.7727 50.814 28.5159Z" fill="#F3EFFB"/>
</svg>
