<svg width="41" height="40" viewBox="0 0 41 40" fill="none" xmlns="http://www.w3.org/2000/svg">
<g clip-path="url(#clip0_76_164)">
<path d="M1.50989 12.9412V32.9412C1.50989 35.5404 3.61655 37.6471 6.21577 37.6471H36.804V30.5882M20.3334 15.2941V5.88235M15.6275 10.5882H25.0393" stroke="#F3EFFB" stroke-width="1.6" stroke-miterlimit="10"/>
<path d="M13.575 15.2941H3.86283C3.21342 15.2941 2.62518 15.0306 2.1993 14.6047C1.77342 14.1788 1.50989 13.5906 1.50989 12.9412C1.50989 11.6416 2.56322 10.5882 3.86283 10.5882H12.0981" stroke="#F3EFFB" stroke-width="1.6" stroke-miterlimit="10"/>
<path d="M20.3334 18.8235C24.8817 18.8235 28.5687 15.1365 28.5687 10.5882C28.5687 6.04 24.8817 2.35294 20.3334 2.35294C15.7852 2.35294 12.0981 6.04 12.0981 10.5882C12.0981 15.1365 15.7852 18.8235 20.3334 18.8235Z" stroke="#F3EFFB" stroke-width="1.6" stroke-miterlimit="10"/>
<path d="M13.575 15.2941H7.39221M28.5687 10.5882H34.3726V15.2941H27.0918H36.804V23.5294M39.1569 23.5294H34.451C32.5018 23.5294 30.9216 25.1096 30.9216 27.0588C30.9216 29.0081 32.5018 30.5882 34.451 30.5882H39.1569V23.5294ZM8.56868 28.2353H15.6275V32.9412H8.56868V28.2353Z" stroke="#F3EFFB" stroke-width="1.6" stroke-miterlimit="10"/>
</g>
<defs>
<clipPath id="clip0_76_164">
<rect width="40" height="40" fill="white" transform="translate(0.333374)"/>
</clipPath>
</defs>
</svg>
