<svg width="40" height="40" viewBox="0 0 40 40" fill="none" xmlns="http://www.w3.org/2000/svg">
<g clip-path="url(#clip0_75_12)">
<path d="M31.222 12.9787L25.4778 7.23453H18.7245L12.9803 12.9787C7.94293 18.0161 7.94293 26.1831 12.9803 31.2205C18.0175 36.2578 26.1847 36.2578 31.222 31.2205C36.2593 26.1831 36.2593 18.016 31.222 12.9787Z" fill="#9F65DD"/>
<path d="M17.5469 22.1387C17.21 22.1387 17 21.9238 17 21.5723V15.5664C17 15.2148 17.2051 15 17.5469 15H19.7295C21.1797 15 22.083 15.8398 22.083 17.1533C22.083 18.0957 21.585 18.8574 20.7402 19.1553L21.9316 21.2598C22.0195 21.4111 22.0488 21.5137 22.0488 21.6357C22.0488 21.9238 21.8096 22.1387 21.4922 22.1387C21.2383 22.1387 21.1064 22.0459 20.9453 21.7578L19.6221 19.3359H18.0938V21.5723C18.0938 21.9238 17.8789 22.1387 17.5469 22.1387ZM18.0938 18.4521H19.627C20.4717 18.4521 20.9551 17.9883 20.9551 17.1826C20.9551 16.3965 20.4424 15.918 19.5977 15.918H18.0938V18.4521ZM23.543 23.8672C23.2305 23.8672 23.0156 23.6523 23.0156 23.3057V17.3584C23.0156 17.0215 23.2256 16.8164 23.5234 16.8164C23.8213 16.8164 24.0361 17.0215 24.0361 17.3584V17.793H24.0557C24.3584 17.2021 24.9492 16.8262 25.6914 16.8262C26.9951 16.8262 27.8545 17.8516 27.8545 19.4775C27.8545 21.1035 27 22.1338 25.7109 22.1338C24.9736 22.1338 24.3877 21.7725 24.0947 21.2012H24.0703V23.3057C24.0703 23.6523 23.8506 23.8672 23.543 23.8672ZM25.4131 21.2402C26.248 21.2402 26.7705 20.5566 26.7705 19.4775C26.7705 18.4033 26.248 17.7148 25.4131 17.7148C24.6074 17.7148 24.0654 18.418 24.0654 19.4775C24.0654 20.5469 24.6025 21.2402 25.4131 21.2402Z" fill="white"/>
<path d="M39.8811 26.0974C39.7316 25.5769 39.4432 25.107 39.0469 24.738C38.6506 24.3689 38.1613 24.1147 37.6315 24.0026C36.9391 23.8552 36.2189 23.9628 35.6039 24.2897C35.96 22.0752 35.773 19.7845 35.0402 17.6493C34.9002 17.2412 34.4557 17.0242 34.0477 17.1639C33.6395 17.304 33.4223 17.7484 33.5623 18.1565C34.4277 20.6781 34.4348 23.4444 33.5869 25.9691L27.361 31.4985C26.98 31.8367 26.5592 32.1272 26.1079 32.3637C26.2359 31.8467 26.2242 31.305 26.0738 30.7941C25.9546 30.3913 25.7523 30.0179 25.4799 29.6981C25.2075 29.3783 24.871 29.1191 24.4923 28.9374L18.977 26.2958C16.5657 25.1409 13.7435 25.0073 11.234 25.9286L10.6734 26.1344C9.11727 21.7386 10.2004 16.8635 13.5327 13.5312L19.0482 8.01585H25.1542L29.8274 12.6891C30.1326 12.9941 30.6271 12.9941 30.9323 12.6891C31.2374 12.384 31.2374 11.8893 30.9323 11.5841L26.4672 7.11929L28.0813 2.47413C28.2977 1.8514 28.0588 1.17202 27.5002 0.821865C26.9417 0.471787 26.2259 0.552959 25.7598 1.0189L25.7502 1.02851C25.4273 1.35155 24.9016 1.35155 24.5788 1.02851C23.2076 -0.34251 20.9767 -0.34251 19.6055 1.02851C19.4491 1.18499 19.2411 1.27108 19.0198 1.27108C18.7986 1.27108 18.5905 1.18491 18.4341 1.02851C17.9675 0.561865 17.2513 0.481084 16.6924 0.832256C16.1336 1.18335 15.8955 1.86366 16.1136 2.48663L17.7348 7.11976L12.4279 12.4266C10.4639 14.3906 9.15836 16.8669 8.65258 19.5876C8.20891 21.9735 8.40109 24.4064 9.20539 26.6737L7.97375 27.1259C7.56391 26.593 6.92055 26.2487 6.19797 26.2487H2.23961C1.00469 26.2487 0 27.2534 0 28.4883V37.7591C0 38.994 1.00469 39.9987 2.23961 39.9987H22.8305C26.0648 39.9987 29.1233 38.7573 31.4426 36.5031L39.0925 29.0683C39.4812 28.6914 39.76 28.2157 39.8989 27.6923C40.0378 27.1689 40.0317 26.6176 39.8811 26.0974ZM19.0198 2.83358C19.6584 2.83358 20.2587 2.58491 20.7104 2.13335C21.4723 1.37147 22.712 1.37147 23.4738 2.13335C23.9254 2.58491 24.5259 2.83358 25.1645 2.83358C25.6179 2.83358 26.052 2.70827 26.4273 2.4739L25.0445 6.45343H19.157L17.7665 2.47991C18.1397 2.71038 18.5702 2.83358 19.0198 2.83358ZM1.5625 37.7591V28.4883C1.5625 28.1149 1.86625 27.8112 2.23961 27.8112H6.19789C6.57125 27.8112 6.875 28.1149 6.875 28.4883V37.7591C6.875 38.1324 6.57125 38.4362 6.19789 38.4362H2.23961C1.86625 38.4362 1.5625 38.1324 1.5625 37.7591ZM38.0035 27.9479L30.3536 35.3826C28.3275 37.3517 25.6558 38.4362 22.8305 38.4362H8.33258C8.40222 38.2172 8.43761 37.9888 8.4375 37.7591V28.6201L11.7725 27.3955C13.8887 26.6186 16.2688 26.7312 18.302 27.7051L23.8173 30.3468C24.1893 30.5249 24.4584 30.8409 24.5752 31.2366C24.6919 31.6322 24.6374 32.0438 24.4217 32.3954C24.254 32.6695 23.9991 32.8794 23.698 32.9915C23.3968 33.1036 23.0667 33.1114 22.7605 33.0137L15.4335 30.6837C15.0224 30.553 14.583 30.7802 14.4522 31.1915C14.3215 31.6026 14.5488 32.042 14.96 32.1728L22.287 34.5027C22.582 34.5967 22.8898 34.6447 23.1995 34.6448C23.236 34.6448 23.2724 34.6426 23.3088 34.6412C25.1878 34.6142 26.9913 33.9167 28.3984 32.6669L36.0632 25.8596C36.2305 25.7117 36.43 25.6049 36.6458 25.5479C36.8617 25.4909 37.0879 25.4851 37.3064 25.5311C37.8301 25.6425 38.2313 26.0161 38.3797 26.5305C38.5281 27.0448 38.3875 27.5748 38.0035 27.9479Z" fill="#F3EFFB"/>
<path d="M32.714 15.546C32.9195 15.546 33.121 15.4632 33.2663 15.3171C33.4124 15.1704 33.4947 14.9719 33.4952 14.7648C33.4952 14.5593 33.4116 14.3585 33.2663 14.2124C33.1194 14.0665 32.921 13.9842 32.714 13.9835C32.5084 13.9835 32.3077 14.0671 32.1616 14.2124C32.0158 14.3594 31.9336 14.5577 31.9327 14.7648C31.9327 14.971 32.0163 15.1718 32.1616 15.3171C32.3083 15.4634 32.5069 15.5457 32.714 15.546Z" fill="#F3EFFB"/>
</g>
<defs>
<clipPath id="clip0_75_12">
<rect width="40" height="40" fill="white"/>
</clipPath>
</defs>
</svg>
