<svg width="24" height="24" viewBox="0 0 24 24" fill="none" xmlns="http://www.w3.org/2000/svg">
<g clip-path="url(#clip0_82_26)">
<path d="M23.7448 9.753L12.3684 1.42346C12.2616 1.3452 12.1325 1.30301 12.0001 1.30301C11.8676 1.30301 11.7386 1.3452 11.6317 1.42346L0.255261 9.753C-0.0226135 9.95649 -0.0829885 10.3467 0.120496 10.6246C0.32398 10.9024 0.714215 10.9627 0.992043 10.7593L12 2.69944L23.008 10.7593C23.1147 10.8376 23.2436 10.8798 23.3759 10.8797C23.5679 10.8797 23.7574 10.7914 23.8795 10.6245C24.083 10.3467 24.0227 9.95649 23.7448 9.753Z" fill="#E5DAF7"/>
<path d="M20.7303 10.9005C20.386 10.9005 20.1068 11.1796 20.1068 11.524V21.4498H15.1182V16.0317C15.1182 14.3123 13.7194 12.9135 12.0001 12.9135C10.2808 12.9135 8.88197 14.3124 8.88197 16.0317V21.4498H3.8934V11.5241C3.8934 11.1797 3.61416 10.9005 3.26982 10.9005C2.92547 10.9005 2.64624 11.1797 2.64624 11.5241V22.0734C2.64624 22.4178 2.92547 22.697 3.26982 22.697H9.50555C9.83349 22.697 10.1018 22.4437 10.1267 22.122C10.1282 22.1074 10.1291 22.0915 10.1291 22.0734V16.0317C10.1291 15 10.9684 14.1607 12.0001 14.1607C13.0318 14.1607 13.8711 15.0001 13.8711 16.0317V22.0734C13.8711 22.0914 13.872 22.107 13.8735 22.1214C13.8981 22.4433 14.1665 22.697 14.4946 22.697H20.7304C21.0748 22.697 21.354 22.4178 21.354 22.0734V11.5241C21.3539 11.1796 21.0747 10.9005 20.7303 10.9005Z" fill="#E5DAF7"/>
</g>
<defs>
<clipPath id="clip0_82_26">
<rect width="24" height="24" fill="white"/>
</clipPath>
</defs>
</svg>
