<svg width="41" height="40" viewBox="0 0 41 40" fill="none" xmlns="http://www.w3.org/2000/svg">
<path d="M13.4741 30.0312C13.9919 30.0312 14.4116 29.6115 14.4116 29.0938C14.4116 28.576 13.9919 28.1562 13.4741 28.1562C12.9564 28.1562 12.5366 28.576 12.5366 29.0938C12.5366 29.6115 12.9564 30.0312 13.4741 30.0312Z" fill="#9F65DD"/>
<path d="M16.6041 30.0312C17.1219 30.0312 17.5416 29.6115 17.5416 29.0938C17.5416 28.576 17.1219 28.1562 16.6041 28.1562C16.0864 28.1562 15.6666 28.576 15.6666 29.0938C15.6666 29.6115 16.0864 30.0312 16.6041 30.0312Z" fill="#F3EFFB"/>
<path d="M18.4779 6.54999H12.8541C12.3364 6.54999 11.9166 6.96972 11.9166 7.48749C11.9166 8.00525 12.3364 8.42499 12.8541 8.42499H18.4779C18.9956 8.42499 19.4154 8.00525 19.4154 7.48749C19.4154 6.96972 18.9956 6.54999 18.4779 6.54999Z" fill="#F3EFFB"/>
<path d="M15.9766 9.76624H12.8541C12.3364 9.76624 11.9166 10.186 11.9166 10.7037C11.9166 11.2215 12.3364 11.6412 12.8541 11.6412H15.9766C16.4944 11.6412 16.9141 11.2215 16.9141 10.7037C16.9141 10.186 16.4944 9.76624 15.9766 9.76624Z" fill="#F3EFFB"/>
<path d="M28.1654 30.9375C22.1342 30.9375 17.2279 26.0312 17.2279 20C17.2279 13.9688 22.1342 9.0625 28.1654 9.0625C34.1967 9.0625 39.1029 13.9688 39.1029 20C39.1029 26.0312 34.1967 30.9375 28.1654 30.9375ZM28.1654 10.9375C23.1679 10.9375 19.1029 15.0025 19.1029 20C19.1029 24.9975 23.1679 29.0625 28.1654 29.0625C33.1629 29.0625 37.2279 24.9975 37.2279 20C37.2279 15.0025 33.1629 10.9375 28.1654 10.9375Z" fill="#F3EFFB"/>
<path d="M23.5469 23.1387C23.21 23.1387 23 22.9238 23 22.5723V16.5664C23 16.2148 23.2051 16 23.5469 16H25.7295C27.1797 16 28.083 16.8398 28.083 18.1533C28.083 19.0957 27.585 19.8574 26.7402 20.1553L27.9316 22.2598C28.0195 22.4111 28.0488 22.5137 28.0488 22.6357C28.0488 22.9238 27.8096 23.1387 27.4922 23.1387C27.2383 23.1387 27.1064 23.0459 26.9453 22.7578L25.6221 20.3359H24.0938V22.5723C24.0938 22.9238 23.8789 23.1387 23.5469 23.1387ZM24.0938 19.4521H25.627C26.4717 19.4521 26.9551 18.9883 26.9551 18.1826C26.9551 17.3965 26.4424 16.918 25.5977 16.918H24.0938V19.4521ZM29.543 24.8672C29.2305 24.8672 29.0156 24.6523 29.0156 24.3057V18.3584C29.0156 18.0215 29.2256 17.8164 29.5234 17.8164C29.8213 17.8164 30.0361 18.0215 30.0361 18.3584V18.793H30.0557C30.3584 18.2021 30.9492 17.8262 31.6914 17.8262C32.9951 17.8262 33.8545 18.8516 33.8545 20.4775C33.8545 22.1035 33 23.1338 31.7109 23.1338C30.9736 23.1338 30.3877 22.7725 30.0947 22.2012H30.0703V24.3057C30.0703 24.6523 29.8506 24.8672 29.543 24.8672ZM31.4131 22.2402C32.248 22.2402 32.7705 21.5566 32.7705 20.4775C32.7705 19.4033 32.248 18.7148 31.4131 18.7148C30.6074 18.7148 30.0654 19.418 30.0654 20.4775C30.0654 21.5469 30.6025 22.2402 31.4131 22.2402Z" fill="white"/>
<path d="M29.3292 38.2437C28.9954 38.2437 28.6604 38.1675 28.3529 38.0137L24.6479 36.1613C24.5985 36.1366 24.5434 36.1254 24.4883 36.1289C24.4332 36.1324 24.38 36.1505 24.3342 36.1813L21.8792 37.8187C21.5197 38.0585 21.0974 38.1864 20.6654 38.1864C20.2334 38.1864 19.8111 38.0585 19.4517 37.8187L16.9967 36.1813C16.9511 36.1509 16.8983 36.1332 16.8437 36.1296C16.7891 36.1261 16.7345 36.137 16.6854 36.1613L12.9804 38.0137C12.6349 38.1863 12.2499 38.2645 11.8644 38.2403C11.4789 38.2162 11.1067 38.0906 10.7854 37.8763L8.20165 36.15C7.9024 35.95 7.6571 35.6793 7.48746 35.3618C7.31783 35.0443 7.22911 34.6899 7.22916 34.33V10.2125H9.10416V34.33L9.24291 34.59L11.8279 36.3162C11.8738 36.347 11.927 36.3651 11.9821 36.3686C12.0372 36.3721 12.0923 36.3609 12.1417 36.3363L15.8467 34.4837C16.1915 34.3113 16.5758 34.2331 16.9606 34.2571C17.3454 34.281 17.7171 34.4062 18.0379 34.62L20.4917 36.2562C20.5431 36.2905 20.6036 36.3088 20.6654 36.3088C20.7272 36.3088 20.7877 36.2905 20.8392 36.2562L23.2929 34.62C23.6139 34.406 23.9858 34.2806 24.3708 34.2567C24.7559 34.2328 25.1404 34.3111 25.4854 34.4837L29.1892 36.335C29.2386 36.3597 29.2936 36.3708 29.3487 36.3673C29.4038 36.3638 29.457 36.3458 29.5029 36.315L32.0879 34.5887L32.2267 34.3288V32.7137C32.2267 32.4651 32.3254 32.2267 32.5012 32.0508C32.6771 31.875 32.9155 31.7762 33.1642 31.7762C33.4128 31.7762 33.6513 31.875 33.8271 32.0508C34.0029 32.2267 34.1017 32.4651 34.1017 32.7137V34.3288C34.1017 35.06 33.7367 35.7425 33.1292 36.1488L30.5454 37.875C30.1847 38.1148 29.7611 38.2427 29.3279 38.2425L29.3292 38.2437ZM33.1654 8.425C32.9168 8.425 32.6783 8.32623 32.5025 8.15041C32.3267 7.9746 32.2279 7.73614 32.2279 7.4875V6.25C32.2279 5.50408 31.9316 4.78871 31.4041 4.26126C30.8767 3.73382 30.1613 3.4375 29.4154 3.4375H5.66541V1.5625H29.4154C30.6586 1.5625 31.8509 2.05636 32.73 2.93544C33.609 3.81451 34.1029 5.0068 34.1029 6.25V7.4875C34.1029 7.73614 34.0041 7.9746 33.8283 8.15041C33.6525 8.32623 33.414 8.425 33.1654 8.425Z" fill="#F3EFFB"/>
<path d="M9.10291 20.9375H5.66541C4.75393 20.9368 3.87997 20.5745 3.23546 19.9299C2.59094 19.2854 2.22857 18.4115 2.22791 17.5V5C2.22791 3.10375 3.76916 1.5625 5.66541 1.5625C7.56166 1.5625 9.10291 3.10375 9.10291 5V20.9375ZM5.66541 3.4375C4.80416 3.4375 4.10291 4.13875 4.10291 5V17.5C4.10291 18.3612 4.80416 19.0625 5.66541 19.0625H7.22791V5C7.22791 4.13875 6.52666 3.4375 5.66541 3.4375Z" fill="#F3EFFB"/>
</svg>
