<svg width="40" height="40" viewBox="0 0 40 40" fill="none" xmlns="http://www.w3.org/2000/svg">
<g clip-path="url(#clip0_78_175)">
<path d="M38.6154 4.98764V12.4498C38.6154 14.4396 37.0023 16.0527 35.0125 16.0527H27.5504C25.5606 16.0527 23.9475 14.4396 23.9475 12.4498V4.98764C23.9475 2.9978 25.5606 1.38467 27.5504 1.38467H35.0125C37.0023 1.3846 38.6154 2.99772 38.6154 4.98764ZM12.4497 16.0526H4.98761C2.99777 16.0526 1.38464 14.4395 1.38464 12.4497V4.98764C1.38464 2.9978 2.99777 1.38467 4.98761 1.38467H12.4497C14.4396 1.38467 16.0527 2.9978 16.0527 4.98764V12.4497C16.0527 14.4395 14.4396 16.0526 12.4497 16.0526ZM12.4497 38.6155H4.98761C2.99777 38.6155 1.38464 37.0023 1.38464 35.0125V27.5505C1.38464 25.5606 2.99777 23.9475 4.98761 23.9475H12.4497C14.4396 23.9475 16.0527 25.5606 16.0527 27.5505V35.0125C16.0527 37.0023 14.4396 38.6155 12.4497 38.6155Z" fill="#9F65DD"/>
<path d="M27.5526 16.9556H35.0113C37.4948 16.9556 39.5151 14.9354 39.5151 12.4519V10.5243C39.5151 10.0267 39.1116 9.62351 38.6143 9.62351C38.1169 9.62351 37.7135 10.0267 37.7135 10.5243V12.4519C37.7135 13.9419 36.5014 15.1541 35.0112 15.1541H27.5525C26.0624 15.1541 24.8502 13.942 24.8502 12.4519V4.98789C24.8502 3.49781 26.0623 2.28562 27.5525 2.28562H35.0112C36.5013 2.28562 37.7135 3.49773 37.7135 4.98789V6.18273C37.7135 6.68031 38.1169 7.08351 38.6143 7.08351C39.1116 7.08351 39.5151 6.68031 39.5151 6.18273V4.98789C39.5151 2.50437 37.4948 0.484138 35.0113 0.484138H27.5526C25.069 0.484138 23.0488 2.50437 23.0488 4.98789V12.4519C23.0489 14.9354 25.0691 16.9556 27.5526 16.9556ZM4.98764 16.9535H12.4499C14.9334 16.9535 16.9537 14.9333 16.9537 12.4498V4.98758C16.9537 2.50406 14.9334 0.483826 12.4499 0.483826H4.98764C2.50412 0.483826 0.483887 2.50406 0.483887 4.98758V12.4498C0.483887 14.9333 2.50412 16.9535 4.98764 16.9535ZM2.28537 4.98758C2.28537 3.4975 3.49748 2.28531 4.98764 2.28531H12.4499C13.94 2.28531 15.1522 3.49742 15.1522 4.98758V12.4498C15.1522 13.9399 13.9401 15.1521 12.4499 15.1521H4.98764C3.49756 15.1521 2.28537 13.94 2.28537 12.4498V4.98758ZM4.98764 39.5162H12.4499C14.9334 39.5162 16.9537 37.4959 16.9537 35.0124V27.5505C16.9537 25.0669 14.9334 23.0467 12.4499 23.0467H4.98764C2.50412 23.0467 0.483887 25.0669 0.483887 27.5505V35.0124C0.483887 37.4959 2.50412 39.5162 4.98764 39.5162ZM2.28537 27.5505C2.28537 26.0604 3.49748 24.8482 4.98764 24.8482H12.4499C13.94 24.8482 15.1522 26.0603 15.1522 27.5505V35.0124C15.1522 36.5025 13.9401 37.7147 12.4499 37.7147H4.98764C3.49756 37.7147 2.28537 36.5026 2.28537 35.0124V27.5505ZM38.6155 30.3805H32.1824V23.9475C32.1824 23.4499 31.779 23.0467 31.2816 23.0467C30.7844 23.0467 30.3808 23.4498 30.3808 23.9475V30.3805H23.9472C23.4499 30.3805 23.0464 30.7837 23.0464 31.2813C23.0464 31.7789 23.4498 32.1821 23.9472 32.1821H30.3808V38.6155C30.3808 39.113 30.7843 39.5162 31.2816 39.5162C31.7789 39.5162 32.1824 39.113 32.1824 38.6155V32.182H38.6155C39.1127 32.182 39.5162 31.7788 39.5162 31.2812C39.5162 30.7837 39.1127 30.3805 38.6155 30.3805Z" fill="#F3EFFB"/>
</g>
<defs>
<clipPath id="clip0_78_175">
<rect width="40" height="40" fill="white"/>
</clipPath>
</defs>
</svg>
